<svg xmlns="http://www.w3.org/2000/svg" viewBox="0 0 88.868927 74.724541" width="88.869" height="74.725"><path d="M59.035 38.237s1.116.797 3.03.08c1.912-.718 4.566-1.826 7.121-1.315 2.916.583 3.48 2.91 3.48 3.944 0 1.036 1.687 1.89-.147 4.39 0 0-1.04-2.063-2.326-1.36-1.424.776-3.09 1.526-4.34 1.276-1.163-.232-2.595-.64-1.957.157.64.797 2.551 2.794 5.54 4.01 4.916 2 8.128 4.692 10.081 5.873 2.002 1.21 7.8 3.96 8.835 3.96 1.035 0 .584 1.291-1.98 1.141-1.114-.065 2.19 1.525 1.605 2.11-1.633 1.632-3.304-2.437-4.076-.597-.215.512 1.701 1.93 1.201 2.512-1.869 2.18-4.05-1.954-4.469-1.714-.689.396.803 2.548-.906 3.048-2.25.5-1.622-1.863-2.958-1.625-.65.116-1.084 1.791-2.542 1.541-.877-.15-1.195-1.699-1.483-1.77-.568-.14-1.017 1.48-1.85 1.437-2.047-.104-1.896-2.393-2.216-2.073-.318.32-.114.716-.242 1.281-.292 1.292-3.167 1.125-3.583-.484-.316.115-.376.776-.959.943-.78.224-1.542.583-2.389-.943-.49-.18-1.38.722-2.069.276-.708-.458-.656-1.417-1-1.625-.675-.408-2.19.791-3.147.232-.956-.558-2.71-1.116-3.187-1.753-.479-.638-2.87-1.196-3.188-1.993-.319-.796-3.188-4.064-3.586-4.542-.399-.479-1.429-1.857-2.225-1.777-.797.08-6.375 8.833-7.875 9.375-1.05.38-.978-.505-.978-.505s-4.506 3.597-5.23 3.963c-.85.43-1.465-.137-1.226-.456.24-.319-5.499 4.861-7.412 5.5-1.913.637-2.31-.239.32-2.55 0 0-6.258 4.99-9.287 5.548-3.028.558-1.075-1.325 1.794-3.716 0 0-10.52 5.34-12.114 4.622-1.594-.717-1.167-1.44-.478-1.753 13.548-6.153 17.728-11.259 16.657-10.84-.796.312-9.515 6.462-10.359 4.437-.625-1.5 11.714-7.306 13.387-8.5 0 0-2.55.716-2.55-.398 0-1.116 7.173-3.827 9.803-6.058 0 0-6.202 1.246-6.202.29 0-.957 5.246-2.442 9.79-3.797 0 0-4.685-1.039-4.207-1.996.478-.957 5.615-.04 7.208-.125 2.333-.125 3.583-2.166 3.583-2.166s-1.113-2.03-1.805-3.684c-.59-1.41.725-3.328.513-4.65-.148-.92-1.708-.958-1.5-2.292.103-.66 1.042-.542.833-2.167-.125-.833-2.118-1.86-.667-3.02.938-.75 2.175-.862 1.538-1.18-.638-.319-2.476.304-2.663-.57-.438-1.626.591-1.98.99-2.06.397-.08-1.428-.19-1.428-1.566 0-.956.312-1.463 1.347-1.623 1.036-.16-.807-.729-.972-1.19-.688-1.125.335-2.556 1.61-2.477 0 0-1.162-1.135-.755-2.357.333-1 2.11-1.07 2.35-.99.24.08-2.183-1.26-1.683-2.593.668-1.783 2.241-.994 2.958-.994 0 0-2.045-3.387-1.375-3.923 1.667-1.333 4.75 4.167 5.12 3.366.38-.616-3.915-7.696-2.789-8.209C42.434.166 44.256 8.363 45.851 9c1.593.637.916-1.25.5-2.667C45.087 2.027 46.073.08 47.268 0c1.196-.08 5.07 16.556 6.188 18.708 1.115 2.152 1.673 3.03 1.753 3.746.08.72.4 14.11 3.826 15.783z" fill="unset"/></svg>
