<svg xmlns="http://www.w3.org/2000/svg" width="493" height="510" viewBox="0 0 493 510"><title>4chan</title><path d="M309.387 15.515C321.56-1.1 347.988-4.715 363.976 8.362c12.574 9.813 20.028 24.194 27.432 37.948 4.342-7.78 10.817-15.16 20.003-16.916 12.6-2.736 24.546 4.643 33.556 12.724 22.714 21.961 31.498 57.425 20.831 87.291-8.658 24.898-28.988 43.947-51.325 56.923-30.57 18.397-65.732 26.503-100.166 34.183-18.924-36.467-28.989-77.678-29.842-118.764.377-30.042 5.572-62.167 24.922-86.236zm20.706 2.936c-14.306 7.304-21.333 22.89-25.5 37.597-8.658 33.757-6.198 69.697 2.51 103.178 3.84 15.285 9.287 30.042 14.884 44.75 16.64-1.757 32.527-7.203 48.313-12.474 28.16-10.416 55.668-26.905 71.806-52.982 10.667-17.267 13.302-38.45 9.487-58.202-4.116-14.306-12.574-29.867-28.36-33.205-11.772-2.184-20.155 8.433-25.726 17.192a437.563 437.563 0 0 1-3.288 9.663c-1.08 2.685-2.159 5.396-3.238 8.081-7.479-19.676-15.862-39.78-30.795-55.09-7.755-7.328-19.526-12.825-30.093-8.508zM55.245 42.67c23.843-18.17 57.976-22.362 85.107-9.21 20.957 9.662 36.97 27.582 48.339 47.31 18.598 32.075 26.855 68.768 32.703 105.035-46.306 20.455-98.033 31.146-148.505 23.366-21.936-4.066-44.424-11.72-60.311-28.035-9.964-10.064-15.31-26.026-8.96-39.403 8.584-19.226 28.26-29.365 46.13-38.35-8.935-4.995-16.514-13.503-16.715-24.27.176-15.059 10.566-27.91 22.212-36.442zm2.158 17.193c-7.655 7.53-7.83 21.358-.15 28.913 7.83 8.257 18.622 12.473 29.113 16.213-21.459 6.802-43.896 15.385-59.382 32.452-8.031 8.332-10.842 22.739-3.137 32.175 11.595 14.808 30.795 20.932 48.565 24.471 45.05 7.504 91.909-.602 133.697-18.322-5.396-33.606-15.611-67.262-35.664-95.196-11.771-15.11-26.855-28.361-45.378-34.31-22.563-7.855-50.848-4.517-67.664 13.604zm33.255 271.46c28.11-21.057 61.114-34.76 94.745-44.273l1.933.126c27.18 44.298 45.578 95.924 42.842 148.48-1.656 21.182-6.6 43.444-20.555 60.135-8.885 10.817-24.345 16.564-37.823 11.52-18.673-6.626-31.598-23.066-41.437-39.505-4.743 7.128-8.81 16.138-17.694 18.849-13.628 4.97-27.96-2.209-38.475-10.692-24.647-20.405-36.192-55.818-26.805-86.613 6.626-23.969 23.868-43.294 43.269-58.027zm-6.726 27.533c-4.167 4.417-7.78 9.311-10.943 14.506-14.406 24.245-16.64 57.425.075 81.117 7.38 10.516 21.007 20.104 34.159 14.08 12.348-7.604 15.862-22.99 18.22-36.292 11.872 19.2 21.886 41.262 41.714 53.71 10.09 6.952 26.102 6.777 33.732-3.764 13.603-17.193 15.761-40.358 15.41-61.516-2.083-41.662-15.787-82.372-37.07-118.086-34.962 11.846-71.153 27.181-95.297 56.245zM274.1 313.127c42.942-14.732 88.947-23.416 134.3-16.665 23.817 3.664 47.836 11.394 66.61 27.005 12.172 10.34 21.408 27.433 14.883 43.395-8.559 20.053-29.566 30.82-49.142 37.572 5.998 5.346 12.825 10.842 14.782 19.05 2.71 10.716-2.434 21.81-9.437 29.765-22.11 24.973-60.46 33.055-91.18 20.656-24.622-9.713-42.542-31.147-54.212-54.287-16.49-33.054-23.266-69.998-26.604-106.49zm14.406 11.42c1.958 10.942 2.81 22.086 5.798 32.853l-.578.929 1.205.978c1.832 14.03 6.877 27.408 12.499 40.333 12.122 28.386 34.76 54.463 65.782 61.892 18.146 3.564 38.776 2.083 53.76-9.763 7.63-5.447 12.448-15.737 9.964-24.973-6.024-13.553-20.204-20.605-33.456-25.349 21.107-4.844 42.466-12.423 59.307-26.428 9.888-7.956 15.284-22.89 7.855-34.259-12.298-18.12-34.986-24.496-55.24-29.013-42.34-7.153-86.714-2.134-126.896 12.8z" fill="unset" fill-rule="evenodd"/></svg>
