<svg xmlns="http://www.w3.org/2000/svg" viewBox="0 0 59.164001 58.701" width="59.164" height="58.701"><g transform="translate(-2.418 -2.649)" fill="unset"><path d="M52.976 31.234c0 2.46-.391 4.829-1.116 7.047l-.162-.047s.107-.301.276-.879c.169-.573.398-1.424.588-2.538.184-1.111.329-2.485.306-4.071a22.786 22.786 0 0 0-.707-5.277 35.386 35.386 0 0 0-.346-1.198l.05-.072a22.63 22.63 0 0 1 1.111 7.035z"/><circle cx="50.453" cy="49.934" r="4.325"/><circle cx="38.509" cy="57.571" r="3.653"/><circle cx="24.341" cy="58.12" r="3.23"/><circle cx="12.592" cy="52.174" r="2"/><path d="M61.582 32.23a29.47 29.47 0 0 1-1.258 8.554l-8.464-2.503a22.649 22.649 0 0 0 1.116-7.047 22.63 22.63 0 0 0-1.111-7.035 22.758 22.758 0 0 0-7.732-10.952 23.629 23.629 0 0 0-5.611-3.263 22.986 22.986 0 0 0-3.865-1.18l-.503-.11-.504-.081c-.334-.057-.682-.12-.991-.152l-.478-.055c-.159-.02-.306-.042-.518-.05l-.58-.035-.289-.017-.149-.007-.07-.005-.035-.002h-.03c-2.734-.085-5.498.281-8.088 1.111a24.45 24.45 0 0 0-7.174 3.72c-2.112 1.601-3.915 3.491-5.312 5.508-.364.498-.68 1.014-.996 1.524-.154.256-.291.515-.438.772a11.31 11.31 0 0 0-.406.777c-.535 1.033-.949 2.087-1.305 3.105-.167.515-.341 1.018-.466 1.522-.062.249-.139.498-.192.745-.057.249-.11.493-.159.74l-.077.356c-.022.122-.042.242-.062.364-.037.237-.077.476-.115.705-.07.461-.107.892-.16 1.323-.037.451-.06.924-.087 1.36l-.002.085s0 .017-.005.017v.02l-.002.154c-.005.102-.005.204-.007.301 0 .204-.005.398 0 .593a24.412 24.412 0 0 0 .551 5.067A19.892 19.892 0 0 0 6.25 39.2l-2.662.762s-.03-.09-.087-.271a27.388 27.388 0 0 1-.647-2.388 29.65 29.65 0 0 1-.436-5.073c0-16.338 13.245-29.581 29.584-29.581a29.46 29.46 0 0 1 19.269 7.137 29.559 29.559 0 0 1 5.842 6.806 29.426 29.426 0 0 1 4.469 15.638z"/><path d="M45.617 23.888c-.553-.836-1.426-1.08-2.316-.645-.975.478-1.923 1.034-2.852 1.579l-.227.133c-1.497.882-2.991 1.769-4.484 2.656l-2.54 1.507a5.45 5.45 0 0 0-5.13.51 5.38 5.38 0 0 0 6.066 8.885 5.412 5.412 0 0 0 2.342-4.614 755.461 755.461 0 0 1 5.443-4.629l.154-.13c1.674-1.416 2.997-2.534 3.276-2.79.752-.688.85-1.586.268-2.462z"/></g></svg>
