<svg xmlns="http://www.w3.org/2000/svg" width="120" height="120" viewBox="0 0 120 120"><path d="M93.204 23.478l-1.225-4.49 6.335-6.335 17.625 17.626-6.336 6.335-4.49-1.228z" fill="unset"/><path d="M67.659 17.817v-3.413h6.087l5.904-2.395v-9.29H43.247v9.29l5.904 2.395h6.09v3.416c-11.287 1.406-21.42 6.58-29.08 14.24l6.953 6.954c7.26-7.262 17.283-11.755 28.334-11.755 22.11 0 40.094 17.984 40.094 40.09 0 22.108-17.984 40.092-40.094 40.092-19.47 0-35.736-13.955-39.34-32.39h7.76L16.966 52.7 4.06 75.052h8.054c3.715 23.889 24.424 42.23 49.333 42.23 27.535 0 49.933-22.4 49.933-49.931.001-25.429-19.112-46.465-43.722-49.534z" fill="unset"/><path d="M61.448 35.566v31.687h30.784c0-17.5-13.78-31.687-30.784-31.687z" fill="unset"/></svg>
