<svg xmlns="http://www.w3.org/2000/svg" viewBox="0 0 90.199997 55.099998" width="90.2" height="55.1"><path d="M84.1 4.2H69.6c.1.2.1.3.1.5V5c0 .8-.6 1.4-1.4 1.4-.8 0-1.4-.6-1.4-1.4v-.3c0-.2 0-.3.1-.5H26.6c.1.2.1.3.1.5V5c0 .8-.6 1.4-1.4 1.4-.8 0-1.4-.6-1.4-1.4v-.3c0-.2 0-.3.1-.5H6V2.3C6 1.4 6.7 0 8.2 0h73.6c1.5 0 2.4 1.4 2.4 2.3v1.9zM6 5.8s-.7.1-1.8.1c-.3 0-.6 0-.9.1h-.9s-.1 0 0 0h-.1.1v1l.4 5.8c.1.7-.5 1.4-1.3 1.5-.7.1-1.4-.5-1.5-1.3v-.2L.4 7v-.5c0-.2 0-.4.1-.7.4-.2.5-.6.8-.8.1-.1.3-.3.5-.3.1-.1.5-.1.5-.1h1c.3 0 .6 0 .9.1 1.1.1 1.8.1 1.8.1.3 0 .5.3.5.5-.1.3-.3.5-.5.5zm84.2 8.6h-4.3V4.2h4.3zm-45-7.3H6.1v9.3c0 2.4 1.8 4.5 4 4.5h4.3c0 8.6 1.4 17.1-2 22-.5.7-.9 1.3-1.1 1.8-.6 1-.6 2.4-.6 4.4v1.1c0 1.7.4 2.5 1.1 3.1.8.7 2.4 1.8 5.4 1.8h56.2c3 0 4.7-1.1 5.4-1.8.7-.6 1-1.4 1.1-3.1v-1.1c0-2 0-3.4-.6-4.4-.2-.5-.6-1.1-1.1-1.8-3.5-4.9-2-13.5-2-22h4.3c2.2 0 4-2 4-4.5V7.1zM67 46.7c0 .5-.4.8-.8.8h-5c-.5 0-.8.3-.8.6s-.4.6-.8.6H31c-.5 0-.8-.3-.8-.6s-.4-.6-.8-.6h-5c-.5 0-.8-.4-.8-.8v-1.4c0-.5.4-.8.8-.8h41.8c.5 0 .8.4.8.8zm-6.5-12.8v-1.3h5.1v1.3h-2v1.6h-1.1v-1.6zm.7 3.5v1.3h-2v1.6h-1.1v-1.6h-2v-1.3zm-4.5-3.5h-2v1.6h-1.1v-1.6h-2v-1.3h5.1zm-4.4 3.5v1.3h-2v1.6h-1.1v-1.6h-2v-1.3zm-4.4-3.5h-2v1.6h-1.4v-1.6h-2v-1.3h5.2v1.3zm-4.7 3.5v1.3h-2v1.6h-1.1v-1.6h-2v-1.3zm-4.4-3.5h-2v1.6h-1.1v-1.6h-2v-1.3h5.1zm-4.5 3.5v1.3h-2v1.6h-1.1v-1.6h-2v-1.3zm-4.4-3.5h-2v1.6h-1.1v-1.6h-2v-1.3h5.1zM76.7 18H60.2c-.7 1.3-3 3.6-5.2 4.6l-2.8-3c-.2-.3-.7-.3-.9 0-.3.2-.3.7 0 .9l2.5 2.8c-.6.3-2.2.9-3.4 1.2l-1.1-4.6c-.1-.4-.5-.6-.8-.5-.4.1-.6.5-.5.8l1.1 4.6c-.8.2-2.3.3-3.1.3v-5c0-.4-.3-.7-.7-.7-.4 0-.7.3-.7.7v5c-.9 0-2.3-.2-3.1-.3l1.1-4.6c.1-.4-.1-.7-.5-.8-.4-.1-.7.1-.8.5l-1.1 4.6c-1.2-.3-2.8-.9-3.4-1.2l2.5-2.8c.2-.3.2-.7 0-.9-.3-.2-.7-.2-.9 0l-2.8 3c-2.2-1-4.5-3.3-5.2-4.6H13.7c-.3 0-.6-.3-.6-.7 0-.4.3-.7.6-.7h63c.3 0 .6.3.6.7.1.4-.2.7-.6.7z" fill="unset"/></svg>
