<svg xmlns="http://www.w3.org/2000/svg" viewBox="0 0 47.800001 75.099996" width="47.8" height="75.1"><path d="M36.4 59h-25c-1.4 0-2.5-1.1-2.5-2.5V44.6c0-6 4.8-10.8 10.8-10.8H28c6 0 10.8 4.8 10.8 10.8v11.9c.1 1.4-1 2.5-2.4 2.5zm11.4-10.1v-5.1c0-1.9-1.5-3.5-3.5-3.5h-1.2c-1.9 0-3.5 1.5-3.5 3.5v5.1c0 1.9 1.5 3.5 3.5 3.5h1.2c1.9 0 3.5-1.6 3.5-3.5zm-39.6 0v-5.1c0-1.9-1.5-3.5-3.5-3.5H3.5c-1.9 0-3.5 1.5-3.5 3.5v5.1c0 1.9 1.5 3.5 3.5 3.5h1.2c1.9 0 3.5-1.6 3.5-3.5zm28.4 19.9v-5.1c0-1.9-1.5-3.5-3.5-3.5h-1.2c-1.9 0-3.5 1.5-3.5 3.5v5.1c0 1.9 1.5 3.5 3.5 3.5h1.2c2 0 3.5-1.5 3.5-3.5zm-17.3 0v-5.1c0-1.9-1.5-3.5-3.5-3.5h-1.2c-1.9 0-3.5 1.5-3.5 3.5v5.1c0 1.9 1.5 3.5 3.5 3.5h1.3c1.9 0 3.4-1.5 3.4-3.5zM23 38.3L20.1 46H23l-2.9 8.4L27.6 44s-2.7.6-2.7 0 2.7-5.7 2.7-5.7zm14.1 35.4c0-.8-.6-1.4-1.4-1.4h-6.2c-.8 0-1.4.6-1.4 1.4 0 .8.6 1.4 1.4 1.4h6.2c.7 0 1.4-.7 1.4-1.4zm-17.3 0c0-.8-.6-1.4-1.4-1.4h-6.2c-.8 0-1.4.6-1.4 1.4 0 .8.6 1.4 1.4 1.4h6.2c.7 0 1.4-.7 1.4-1.4zm21.1-20.8c-.4 0-.7.5-.6 1 .5 1.6 1.8 2.7 3.4 2.7 1.5 0 2.9-1.1 3.4-2.7.1-.5-.1-1-.6-1zm-39.6 0c-.4 0-.7.5-.6 1 .5 1.6 1.8 2.7 3.4 2.7 1.5 0 2.9-1.1 3.4-2.7.1-.5-.1-1-.6-1zm12.2-22.3L6.1 17.9c-.6-1.1-.6-2.4 0-3.5l7.4-12.7c.6-1.1 1.8-1.7 3-1.7h14.7c1.2 0 2.4.7 3 1.7l7.4 12.7c.6 1.1.6 2.4 0 3.5l-7.4 12.7c-.6 1.1-1.8 1.7-3 1.7H16.5c-1.2.1-2.4-.6-3-1.7zm20.3-11.5c0-.9-.7-1.6-1.6-1.6H15.6c-.9 0-1.6.7-1.6 1.6 0 .9.7 1.6 1.6 1.6h16.6c.9.1 1.6-.7 1.6-1.6z" fill="unset"/><rect width="14.778" height="21.094" x="15.963" y="35.879" ry="6" fill="unset"/></svg>
