<svg xmlns="http://www.w3.org/2000/svg" width="805.55" height="805.55" viewBox="0 0 213.135 213.135"><path d="M106.568.356c-.419 0-.837.16-1.157.481L1.158 105.09a1.633 1.633 0 000 2.314L105.41 211.657a1.633 1.633 0 002.314 0l104.253-104.253a1.633 1.633 0 000-2.314L107.725.837a1.631 1.631 0 00-1.157-.48zm0 4.06c.322 0 .644.122.89.37l100.555 100.553c.263.263.38.612.363.955l.273.273-102.082 102.082L4.487 106.567l.272-.273c-.018-.343.1-.692.364-.955L105.677 4.785c.246-.247.569-.37.89-.37z"/><path d="M69.896 100.758c-.654-.11-1.67-.443-2.257-.742-2.89-1.47-2.909-3.352-.064-6.314 1.178-1.227 1.314-1.455 1.033-1.738-.178-.178-.438-1.067-.578-1.974-.212-1.367-.17-2.664.241-7.564.274-3.253.533-5.952.576-6 .176-.191 2.42 1.446 2.97 2.167l.593.777-.725 5.909c-.399 3.25-.722 5.97-.718 6.044.004.074 1.346-.364 2.983-.974 1.636-.61 4.09-1.397 5.452-1.747 1.66-.428 2.55-.77 2.7-1.038.323-.577.034-4.178-.502-6.262-.648-2.523-2.102-5.178-3.765-6.873-3.155-3.218-6.693-3.538-11.779-1.064-1.525.742-2.204.969-2.378.795-.327-.326.184-.706 2.471-1.834 2.207-1.09 4.277-1.562 6.866-1.567 5.181-.01 9.28 2.549 11.597 7.242 1.243 2.518 1.706 4.522 1.711 7.404l.004 2.12 1.324-.12c1.446-.131 3.418-.889 3.418-1.313 0-.603 1.473-3.203 2.152-3.8.94-.824 2.128-1.059 3.022-.596 1.204.622 2.276 2.498 2.276 3.98 0 1.13-.405.914-.568-.302-.4-2.98-1.271-3.424-2.542-1.298-.95 1.588-1.596 3.666-1.903 6.116-.412 3.28.05 4.252 1.485 3.123.754-.593 1.002-1.049 1.712-3.143.668-1.968 1.189-2.275 2.037-1.198.468.594.489.778.346 3.004-.245 3.805.312 4.46 2.131 2.512 1.932-2.069 3.891-6.693 4.535-10.706.36-2.238.71-2.5 2.086-1.568l.954.647-.056 2.13c-.031 1.172-.11 2.36-.174 2.639-.064.279-.014.508.113.508.126 0 .23-.142.23-.316 0-.722 2.128-4.494 3.192-5.658 1.318-1.443 2.08-1.61 3.373-.738 1.923 1.296 2.098 2.337 1.337 7.953-.838 6.188-.438 9.022 1.215 8.607 1.2-.301 2.597-3.599 4.206-9.923.598-2.352 1.223-4.363 1.39-4.468.533-.339 1.226-.212 1.701.31.88.964 1.006 1.436.762 2.824-.284 1.612-.689 6.287-.692 7.982-.002.943.118 1.42.466 1.863 1.061 1.349 2.806.335 4.163-2.419.722-1.466 2.142-6.364 2.142-7.388 0-.777.945-2.95 1.614-3.713.914-1.04 2.332-1.548 3.95-1.414 1.66.137 2.338.82 2.338 2.356 0 1.954-1.359 3.677-3.313 4.2l-1.03.275.11 1.368c.188 2.344 1.162 3.492 2.963 3.492 1.69 0 3.756-2.365 5.205-5.959.6-1.49.807-2.333.807-3.303 0-.716.104-2.354.232-3.64.704-7.079 2.175-11.05 4.554-12.293.833-.435 2.663-.407 3.315.05 2.58 1.806.58 10.459-3.61 15.629l-1.162 1.434.122 4.887c.126 5.05.384 7.272.99 8.55.485 1.02 1.08.95 2.245-.266 1.672-1.745 3.246-5.607 4.213-10.336.48-2.347.705-2.821.99-2.078.18.468-.688 4.767-1.414 7.005-1.452 4.475-3.212 6.898-5.47 7.533-.955.268-1.636.015-2.534-.941-1.407-1.499-2.09-4.07-2.389-8.992-.082-1.36-.211-2.468-.285-2.46-.075.006-.483.74-.908 1.63-1.411 2.953-3.786 4.706-6.451 4.76-2.494.051-4.425-1.13-4.76-2.91-.08-.431-.213-.784-.293-.784-.081 0-.433.838-.781 1.863-.772 2.27-1.968 4.102-3.275 5.016-.839.586-1.183.685-2.403.685-1.09 0-1.538-.103-1.905-.435-.637-.577-1.11-2.276-1.323-4.761l-.175-2.03-.502 1.617c-1.062 3.416-2.554 6.005-3.952 6.857-1.04.634-1.48.558-2.412-.422-1.081-1.137-1.733-3.153-2.073-6.414-.232-2.227-.214-2.901.141-5.257.64-4.245.714-5.012.531-5.506-.108-.294-.297-.414-.516-.33-.817.314-2.83 3.744-4.29 7.31-.459 1.123-.568 1.688-.464 2.402.206 1.424-.57 1.992-1.984 1.455-.612-.233-1.288-1.66-1.288-2.719 0-.362-.101-.722-.225-.799-.125-.076-.226 0-.226.168 0 .714-1.873 4.1-2.84 5.133-1.153 1.233-2.735 2.263-3.476 2.263-.76 0-1.545-.986-1.954-2.457l-.377-1.358-.914.782c-1.19 1.018-2.301 1.323-3.454.947-1.287-.42-1.776-1.532-1.765-4.01.005-1.056.08-2.187.167-2.514l.158-.594-1.619.425c-.89.234-1.94.425-2.333.425-.645 0-.74.092-.99.96-.153.528-.72 1.874-1.26 2.991-2.286 4.727-5.948 7.555-10.665 8.237-1.758.254-2.21.252-3.849-.021zm4.233-1.236c2.196-.652 4.058-2.167 5.573-4.536.891-1.393 2.11-4.506 2.11-5.39 0-.65.253-.683-3.91.497-4.368 1.238-8.073 3.224-10.086 5.408-1.023 1.11-1.09 1.477-.463 2.505 1.009 1.656 4.03 2.332 6.776 1.516zm63.638-12.658c1.05-.678 1.572-3.254.812-4.014-1.117-1.117-2.3.476-2.898 3.904l-.133.758.846-.154c.466-.085 1.083-.308 1.373-.494zm11.003-3.635c1.733-1.927 3.27-5.394 3.957-8.926.747-3.835.436-5.918-.86-5.763-.768.091-1.268 1.067-1.974 3.85-.684 2.696-2.048 11.46-1.783 11.46.056 0 .353-.28.66-.621z"/><path d="M125.951 81.03a11.79 11.79 0 00-.829-.208c-1.234-.272-1.344-2.618-.122-2.616.815.002 1.968.827 1.964 1.407-.007 1.241-.302 1.654-1.013 1.417zM149.432 143.035c-1.47-.908-1.965-2.002-2.49-5.497a88.827 88.827 0 01-.332-2.322c0-.399-.419.036-.89.922-1.403 2.646-4.533 3.134-6.169.963-.602-.8-1.284-2.577-1.31-3.418a3.337 3.337 0 00-.184-.928c-.138-.35-.28-.197-.792.849-.924 1.89-2.26 3.452-3.804 4.45-1.966 1.27-2.956 1.16-3.756-.42-.234-.461-.5-1.195-.592-1.63-.247-1.171-.272-1.177-1.373-.336-1.393 1.063-2.546 1.389-3.696 1.044-.865-.259-1.818-1.234-1.818-1.86 0-.498-.353.07-.786 1.266-1.213 3.346-2.869 5.639-4.73 6.55-1.628.796-2.492.661-3.598-.564-1.102-1.22-1.627-2.33-2.032-4.304-.31-1.512-.734-5.148-.879-7.553l-.054-.903-.718 1.268c-.824 1.453-2.191 2.713-3.556 3.278-.9.372-.956.453-1.196 1.713-.487 2.563-2.059 4.646-4.41 5.844-2.28 1.161-4.509 1.088-4.821-.158-.12-.476-.225-.515-1.07-.4-.75.103-1.018.04-1.337-.312-.702-.776-1.12-3.678-1.151-8.005-.029-3.956-.034-3.994-.48-3.663-1.05.778-2.072 1.088-3.626 1.1l-1.593.013-.638 1.68c-1.114 2.936-3.17 4.528-5.847 4.528-.882 0-1.155-.116-1.815-.776-1.042-1.042-1.742-2.98-1.888-5.23l-.12-1.83-1.042.395c-.573.217-1.82.52-2.772.672l-1.73.277-.498 1.384c-1.121 3.118-2.485 5.356-4.502 7.39-3.127 3.154-6.207 4.382-10.613 4.231-2.205-.075-2.52-.144-3.957-.87-.86-.434-1.768-1.073-2.019-1.42-.993-1.375-.305-3.309 1.97-5.537l1.225-1.202-.396-.777c-.706-1.385-.747-3.537-.195-10.144.286-3.413.61-6.205.72-6.205.408 0 2.56 1.58 3.046 2.236.277.374.506 1.015.509 1.424.003.408-.318 3.309-.713 6.445-.396 3.137-.665 5.757-.599 5.823.066.066.87-.176 1.786-.539 2.415-.955 7.081-2.437 8.748-2.779l1.44-.294-.12-2.94c-.129-3.178-.54-4.968-1.703-7.43-1.448-3.063-4.165-5.844-6.452-6.605-2.51-.834-5.81-.302-9.443 1.524-1.929.97-2.275 1.051-2.167.512.11-.552 2.772-2.058 4.81-2.721 2.403-.783 6.522-.988 8.688-.434 3.43.879 6.612 3.256 8.41 6.282 1.558 2.622 2.235 5.004 2.379 8.364.067 1.588.204 2.936.303 2.998.31.191 3.27-.52 4.256-1.022.517-.263.998-.652 1.07-.864.645-1.913 1.228-2.8 2.079-3.163.742-.317.91-.513 1.017-1.181.263-1.647 2.207-2.725 4.029-2.236 2.607.7 3.817 3.858 3.285 8.566-.058.509.025.572.839.639 1.725.142 3.559-.798 4.272-2.19.167-.327.374-1.254.46-2.061.27-2.535 1.212-6.852 1.949-8.942 2.097-5.943 4.51-8.399 8.033-8.174 1.607.102 2.397.554 3.122 1.786.723 1.227.59 4.188-.324 7.202-1.399 4.616-4.424 10.036-7.467 13.377-.764.838-1.319 1.524-1.233 1.524.085 0 .93-.519 1.878-1.152 1.633-1.093 1.786-1.148 2.92-1.054.713.06 1.445.283 1.809.553.873.646 1.627 1.84 1.627 2.576 0 .919.34.992 1.484.321 2.15-1.26 4.16-5.266 4.16-8.287 0-2.237.665-7.844 1.228-10.354.912-4.07 2.363-6.588 4.302-7.47 1.858-.843 3.624-.34 4.395 1.252 1.633 3.373-1.17 12.086-5.453 16.951l-.94 1.068.269 5.564c.462 9.557 1.216 11.441 3.611 9.023 1.76-1.778 3.855-6.754 4.355-10.346.519-3.724 2.274-7.442 3.872-8.2 1.212-.576 2.48-.494 3.32.215.958.805 1.852 2.638 1.893 3.88.05 1.5-.438 1.438-.616-.08-.18-1.525-.667-2.77-1.158-2.959-.528-.202-1.32.65-2.126 2.288-1.752 3.56-2.435 10.05-1.057 10.05.87 0 2.836-2.605 2.85-3.775.003-.222.201-.835.44-1.362.513-1.128 1.026-1.234 1.83-.376.527.562.548.704.548 3.845 0 2.596.066 3.303.325 3.464 1.331.828 4.6-4.044 5.977-8.91.75-2.653 1.126-3.34 2.127-3.895 1.19-.659 2.553-.82 4.24-.502.804.152 1.503.235 1.553.185.05-.05.205-1.46.343-3.132.391-4.72 1.381-8.781 2.623-10.756.585-.93 1.864-2.35 2.771-3.077 1.096-.877 2.185-.784 2.876.245.608.905.877 3.055.658 5.27-.304 3.092-2.78 10.805-4.553 14.188-.757 1.445-.765 1.491-.765 4.435 0 6.927.978 11.006 2.427 10.116.988-.607 3.07-5.945 4.57-11.721 1.21-4.651 2.039-6.251 3.395-6.55.578-.126.67-.25.67-.888 0-.985.689-1.813 1.889-2.27.808-.31 1.146-.33 1.93-.12 2.832.764 4.142 4.143 3.37 8.699-.067.398.067.46 1.125.52 1.657.095 3.063-.6 3.853-1.902.617-1.019 1.155-1.284 1.155-.571 0 .697-1.29 2.248-2.311 2.781-.695.362-1.43.518-2.641.56l-1.678.056-.507 1.4c-1.072 2.959-2.877 4.518-5.418 4.68-1.424.09-1.456.08-2.31-.78-.48-.485-1.044-1.377-1.264-2.003-.219-.62-.47-1.322-.557-1.557-.113-.302-.378.329-.899 2.135-1.37 4.756-2.943 8.04-4.32 9.02-.796.567-2.152.58-3.044.03zm-92.44-1.524c3.922-1.164 7.111-4.411 8.4-8.554.588-1.887.687-2.823.301-2.823-1.405 0-5.343 1.18-8.025 2.404-3.586 1.637-7.917 5.036-7.917 6.213 0 .234.42.88.934 1.438 1.471 1.596 3.764 2.077 6.306 1.322zm41.527-.514c.98-.704 2.007-2.256 2.455-3.705.347-1.125.373-1.414.13-1.47-1.108-.26-5.068 3.682-5.068 5.043 0 .868 1.36.94 2.483.132zm-.703-4.136c.62-.558 1.692-1.259 2.38-1.556l1.25-.542.004-1.355c.003-1.684-.59-2.822-1.471-2.822-1.176 0-3.066 1.278-3.841 2.597-.71 1.207-1.107 3.72-.897 5.675l.166 1.55.64-1.266c.353-.698 1.147-1.722 1.77-2.281zm46.756-.547c.388-.327.955-1.085 1.259-1.686.606-1.197.7-2.804.406-6.947-.134-1.89-.19-2.082-.647-2.196-1.63-.41-3.678 1.233-4.188 3.36-.586 2.442-.079 6.49.953 7.596.588.632 1.368.587 2.217-.127zm-62.128-1.98c.769-.4 1.473-1.353 2.315-3.134l.66-1.397-.844-.433c-1.16-.595-3.226-2.757-4.11-4.302-.827-1.445-1.068-1.53-.604-.215.222.628.279 1.531.197 3.107-.148 2.817.234 5.105 1.006 6.022.653.776.592.76 1.38.351zm82.455-.736c.632-.719 2.031-3.222 2.031-3.632 0-.099-.366-.378-.814-.619-1.048-.564-3.465-3.175-4.17-4.503-.647-1.22-1.038-1.38-.556-.227.244.584.33 1.625.317 3.81-.02 3.334.373 5.286 1.177 5.849.627.439 1.206.244 2.015-.678zm-65.334-7.418c5.008-7.339 6.73-13.985 4.33-16.718-2.953-3.364-6.828 4.281-8.187 16.157-.192 1.676-.346 3.607-.342 4.29l.007 1.241 1.404-1.47c.772-.81 2.027-2.384 2.788-3.5zm-13.736.243c.083-2.204-.376-3.678-1.522-4.883-2.15-2.26-3.906.033-2.377 3.103.62 1.245 3.1 3.778 3.553 3.629.183-.06.303-.702.346-1.85zm81.68.868c.482-3.211-1.23-6.635-3.317-6.638-1.342-.002-1.708 1.81-.758 3.751.65 1.33 3.028 3.924 3.595 3.924.213 0 .379-.357.48-1.037zm-16.604-3.224c2.04-5.639 3.148-10.226 3.153-13.057.003-2.25-.294-3.052-1.097-2.956-.464.055-.645.293-.997 1.309-1.142 3.29-2.012 8.841-2.3 14.675-.124 2.528-.103 2.778.199 2.4.185-.233.654-1.3 1.042-2.37zm-35.72-.988c1.3-1.757 2.173-3.43 2.96-5.674 1.27-3.626 1.75-8.011 1.027-9.408-.403-.78-1.19-.89-1.771-.247-1.07 1.182-2.172 6.183-3.428 15.555-.172 1.283.139 1.226 1.213-.226z"/><path d="M106.568 8.258a1.51 1.51 0 00-1.071.446L9.024 105.177a1.51 1.51 0 000 2.14l96.473 96.474a1.51 1.51 0 002.141 0l96.473-96.473a1.51 1.51 0 000-2.141L107.638 8.704a1.51 1.51 0 00-1.07-.446zm0 3.757c.298 0 .596.114.824.342l93.05 93.05c.244.244.353.566.337.884l.252.252-94.464 94.464-94.463-94.464.252-.252c-.016-.318.094-.64.337-.884l93.05-93.05c.229-.228.527-.342.825-.342z"/></svg>