<svg xmlns="http://www.w3.org/2000/svg" width="204.072" height="173.023" viewBox="0 0 53.994179 45.778927"><path d="M19.436 30.815a4.392 4.392 0 0 1-4.388-4.386 4.392 4.392 0 0 1 4.388-4.387 4.391 4.391 0 0 1 4.387 4.387 4.391 4.391 0 0 1-4.387 4.386zm31.747-3.057c.066.502.101.995.101 1.476 0 9.122-10.912 16.545-24.329 16.545S2.626 38.356 2.626 29.234c0-.498.038-1.015.109-1.54A6.691 6.691 0 0 1 0 22.299a6.734 6.734 0 0 1 6.726-6.726c1.446 0 2.854.471 4.012 1.332 4.17-2.535 9.486-4.014 15.075-4.191L30.098.534l10.27 2.454A5.594 5.594 0 0 1 45.325 0a5.622 5.622 0 0 1 5.614 5.614 5.622 5.622 0 0 1-5.614 5.615 5.625 5.625 0 0 1-5.59-5.078l-7.564-1.808-2.963 8.418c5.192.33 10.117 1.793 14.007 4.17a6.715 6.715 0 0 1 4.052-1.362 6.734 6.734 0 0 1 6.726 6.727 6.661 6.661 0 0 1-2.81 5.462zm-47.96-5.46c0 .674.198 1.327.56 1.887.887-1.88 2.275-3.65 4.08-5.204a3.51 3.51 0 0 0-4.64 3.317zm44.838 6.936c0-7.346-9.47-13.32-21.106-13.32-11.636 0-21.105 5.976-21.105 13.32 0 7.345 9.469 13.321 21.105 13.321 11.637 0 21.106-5.976 21.106-13.32zm-1.986-10.228c1.816 1.57 3.209 3.363 4.088 5.262a3.47 3.47 0 0 0 .615-1.97 3.509 3.509 0 0 0-3.502-3.505c-.416 0-.82.074-1.2.213zM42.94 5.617c0 1.32 1.074 2.39 2.39 2.39a2.395 2.395 0 0 0 2.391-2.39c0-1.32-1.073-2.39-2.39-2.39a2.395 2.395 0 0 0-2.39 2.39zm-7.883 28.632a1.6 1.6 0 0 0-1.14.47c-.086.087-2.196 2.07-7.005 2.07-4.75 0-6.665-1.986-6.67-1.99a1.61 1.61 0 0 0-2.262-.168 1.606 1.606 0 0 0-.177 2.272c.076.088.778.884 2.264 1.64 1.907.973 4.209 1.467 6.845 1.467 2.619 0 4.951-.486 6.929-1.44 1.535-.743 2.297-1.515 2.38-1.601a1.618 1.618 0 0 0-.043-2.267 1.61 1.61 0 0 0-1.121-.453zm-.051-12.207a4.392 4.392 0 0 0-4.389 4.387 4.392 4.392 0 0 0 4.389 4.386 4.391 4.391 0 0 0 4.386-4.386 4.391 4.391 0 0 0-4.386-4.387z" fill="unset"/></svg>
