<svg xmlns="http://www.w3.org/2000/svg" viewBox="0 0 63.160252 89.945999" width="63.16" height="89.946"><g fill="unset"><path d="M59.594 41.684L41.081 23.17l11.475-11.475a2.708 2.708 0 0 0 0-3.83l-4.299-4.299A12.094 12.094 0 0 0 39.648 0c-3.253 0-6.31 1.267-8.61 3.566L3.56 31.043c-4.747 4.748-4.747 12.472 0 17.219l18.513 18.513L10.6 78.251a2.708 2.708 0 0 0 0 3.83l4.3 4.299c2.3 2.3 5.356 3.566 8.61 3.566 3.252 0 6.31-1.266 8.61-3.566l27.475-27.477c2.3-2.3 3.566-5.357 3.566-8.61 0-3.253-1.267-6.31-3.566-8.609zM44.427 7.396l2.385 2.385-9.56 9.56-2.385-2.385a6.767 6.767 0 0 1-.003-9.557l.003-.003.002-.002a6.713 6.713 0 0 1 4.78-1.978 6.71 6.71 0 0 1 4.778 1.98zM28.288 82.55a6.716 6.716 0 0 1-4.78 1.98 6.715 6.715 0 0 1-4.78-1.98l-2.385-2.384 11.472-11.472.004-.003.003-.004L39.99 56.519l2.384 2.385a12.092 12.092 0 0 0 6.227 3.334zm27.476-27.476a6.716 6.716 0 0 1-4.78 1.98 6.713 6.713 0 0 1-4.78-1.98l-4.299-4.299a2.708 2.708 0 0 0-3.83 0L25.903 62.946 7.39 44.433a6.768 6.768 0 0 1 0-9.561l20.32-20.32a12.107 12.107 0 0 0 3.327 6.234l24.727 24.727a6.716 6.716 0 0 1 1.98 4.78 6.719 6.719 0 0 1-1.98 4.781z"/><path d="M32.213 28.208a2.708 2.708 0 0 0-3.829 0L14.812 41.78a2.708 2.708 0 0 0 3.83 3.829l13.571-13.571a2.71 2.71 0 0 0 0-3.83zm-.985 11.042l-9.472 9.472a2.708 2.708 0 0 0 3.83 3.829l9.472-9.472a2.708 2.708 0 0 0-3.83-3.829z"/></g></svg>
