<svg xmlns="http://www.w3.org/2000/svg" width="64" height="64" viewBox="0 0 16.933 16.933"><g transform="translate(0 -280.067)"><path d="M13.266 287.632l1.657-1.647a.231.231 0 00.068-.196.239.239 0 00-.116-.174l-4.468-2.566a.235.235 0 00-.284.039l-1.657 1.646-1.656-1.646a.237.237 0 00-.285-.04l-4.467 2.567a.227.227 0 00-.116.174.232.232 0 00.066.196l1.657 1.647-1.657 1.648a.231.231 0 00-.066.196.23.23 0 00.116.172l1.704.98v2.134c0 .084.045.16.117.203l4.47 2.566a.24.24 0 00.235.001l4.467-2.567a.236.236 0 00.118-.203v-2.134l1.705-.98a.24.24 0 00.116-.172.23.23 0 00-.068-.196zm-.805 0l-3.995 2.294-3.995-2.294 2.996-1.72 1-.573 3.612 2.073zm-2.133-4.087l4.045 2.325-1.479 1.469-.242-.14-3.803-2.183zm-3.724 0l1.48 1.471-4.047 2.323-1.479-1.469zm-2.567 4.38l4.044 2.324-1.478 1.468-2.488-1.428-1.557-.894 1.48-1.47zm.196 2.974l2.291 1.315a.228.228 0 00.118.031c.005 0 .008-.005.014-.005a.227.227 0 00.152-.062l1.423-1.415v4.16l-3.998-2.297zm8.464 1.728l-3.995 2.294v-4.157l1.42 1.414a.23.23 0 00.152.062c.005 0 .01.006.014.006.041 0 .081-.01.118-.032l2.29-1.315v1.728zm-2.37-.91L8.85 290.25l4.045-2.324 1.479 1.47z" fill="var(--text)"/><path d="M8.083 285.016l-2.038.665m0-.001l-1.54-.111m1.54.111l-1.123-1.757m3.161 1.093l-1.528-1.892m1.528 1.892l.138-2.909m-.001 0l-1.406-.894m1.269 3.803l2.451-2.246m-2.451 2.246l1.8-.488m-1.8.488l2.435.651m-2.435-.651l-.278 2.154m0 0l1.98-.184m-1.98.184l1.241.906" stroke-width=".5" stroke-opacity=".1"/><circle cx="-275.774" cy="76.657" r=".781" transform="rotate(-75.745)"/><circle cx="-276.395" cy="78.407" r=".698" transform="rotate(-75.745)"/><circle cx="-277.555" cy="79.377" r=".437" transform="rotate(-75.745)"/><circle cx="-275.688" cy="80.002" r=".562" transform="rotate(-75.745)"/><circle cx="-273.898" cy="80.987" r=".604" transform="rotate(-75.745)"/><circle cx="-273.719" cy="79.625" r=".417" transform="rotate(-75.745)"/><circle cx="-275.667" cy="74.682" r=".489" transform="rotate(-75.745)"/><circle cx="-274.139" cy="74.829" r=".5" transform="rotate(-75.745)"/><circle cx="-271.4" cy="77.948" r=".708" transform="rotate(-75.745)"/><circle cx="-271.546" cy="75.682" r=".469" transform="rotate(-75.745)"/><circle cx="-271.68" cy="80.269" r="1.041" transform="rotate(-75.745)"/><circle cx="-273.473" cy="77.361" r="1.01" transform="rotate(-75.745)"/><path style="line-height:normal;font-variant-ligatures:normal;font-variant-position:normal;font-variant-caps:normal;font-variant-numeric:normal;font-variant-alternates:normal;font-feature-settings:normal;text-indent:0;text-align:start;text-decoration-line:none;text-decoration-style:solid;text-decoration-color:#000;text-transform:none;text-orientation:mixed;white-space:normal;shape-padding:0;isolation:auto;mix-blend-mode:normal;solid-color:#000;solid-opacity:1" d="M6.457 286.05l-.152.218 1.424 1.01.152-.216zm0 0l-.218-.15.985-1.44.217.148zm-1.915-.706l-.069.256 1.684.46.07-.254zm.448-1.149l.222-.145.965 1.454-.22.146zm1.47-1.971l.222-.145.965 1.454-.22.146zm3.258 2.964l-.274-.17-1.196 1.698.272.17zm-1.049-2.428l.301-.116.861 1.89-.298.116zm2.446 2.618l-.323-.014-.032-2.077.32.013zm-1.213 1.431l-.275-.17-1.195 1.698.272.17z" color="#000" font-weight="400" font-family="sans-serif" overflow="visible"/><path d="M8.098 286.97l.028.264 1.737-.174-.027-.262zm1.759-2.239l-.129.232 1.523.854.128-.23z" style="line-height:normal;font-variant-ligatures:normal;font-variant-position:normal;font-variant-caps:normal;font-variant-numeric:normal;font-variant-alternates:normal;font-feature-settings:normal;text-indent:0;text-align:start;text-decoration-line:none;text-decoration-style:solid;text-decoration-color:#000;text-transform:none;text-orientation:mixed;white-space:normal;shape-padding:0;isolation:auto;mix-blend-mode:normal;solid-color:#000;solid-opacity:1" color="#000" font-weight="400" font-family="sans-serif" overflow="visible"/></g></svg>