<svg xmlns="http://www.w3.org/2000/svg" width="48" height="48" viewBox="0 0 12.7 12.7"><g fill="none" stroke="var(--text)"><path d="M.877 3.307a6.065 6.065 0 00-.745 2.91 6.085 6.085 0 1011.427-2.91z" stroke-width=".265"/><path d="M6.22.132A6.257 6.08 0 00.72 3.307h10.996A6.255 6.078 0 006.219.132zM3.765 1.719h.67l.335.53-.334.53h-.67l.334-.53zm1.328 0h.67l.334.53-.334.53h-.67l.334-.53zm1.282 0h.671l.335.53-.335.53h-.671l.335-.53zm1.286 0h.669l.335.53-.334.53h-.67l.335-.53z" fill="var(--text)" stroke="none"/></g><path style="line-height:normal;text-indent:0;text-align:start;text-decoration-line:none;text-transform:none" d="M2.699 6.008l1.684-1.684a.393.393 0 01.56 0L6.44 5.821c.443.443.635 1.008 1.218 1.592l.747.747.28.28.281.28a1.055 1.055 0 010 1.498l-.374.374a1.053 1.053 0 01-1.497 0l-.28-.28-.281-.282-.747-.746c-.583-.584-1.149-.775-1.592-1.218L2.7 6.569a.393.393 0 010-.561zm.28.094a.267.267 0 000 .374.267.267 0 00.375 0 .267.267 0 000-.374.267.267 0 00-.375 0zm.563-.376c-.128.125.062.315.187.187l.187-.187c.129-.125-.062-.315-.187-.187zm.561-.561c-.128.124.063.315.187.187l.188-.187c.128-.125-.063-.316-.188-.187zm-.469 1.404c-.128.125.063.316.187.187l.187-.187c.129-.124-.062-.315-.187-.187zm.561-.561c-.128.125.063.315.188.187l.187-.187c.128-.125-.063-.315-.187-.187zm.562-.561c-.129.124.062.315.187.187l.187-.187c.128-.125-.063-.316-.187-.187zm-.749 1.496c-.128.125.063.316.187.188l.188-.188c.128-.124-.063-.315-.188-.187zm.562-.56c-.129.124.062.315.187.186l.187-.187c.128-.124-.063-.315-.187-.187zm.56-.562c-.128.125.063.315.188.187l.187-.187c.128-.125-.062-.315-.187-.187zm-.747 1.497c-.129.124.062.315.187.187l.187-.187c.128-.125-.063-.316-.187-.187zm.56-.562c-.128.125.063.316.188.187l.187-.187c.128-.124-.062-.315-.187-.187zm.562-.56c-.128.124.062.315.187.186l.187-.187c.129-.125-.062-.315-.187-.187zm-.748 1.496c-.129.124.062.315.187.187l.187-.187c.128-.125-.063-.316-.187-.187zm.561-.561c-.128.124.062.315.187.187l.187-.187c.129-.125-.062-.316-.187-.188zm.561-.562c-.128.125.063.316.187.187l.187-.187c.129-.124-.062-.315-.187-.187zm-.561 1.684c-.128.125.062.315.187.187l.187-.187c.129-.125-.062-.315-.187-.187zm1.121-1.121c-.128.125.062.315.187.187l.187-.187c.129-.125-.062-.315-.187-.187zm-.374.561a.13.13 0 00-.037.092v.397c-.004.18.267.18.264 0v-.264h.265c.18.003.18-.268 0-.265H6.16a.132.132 0 00-.095.04zm-.003.91a.128.128 0 00-.036.094v.397c0 .073.06.132.132.132h.397c.18.003.18-.268 0-.265h-.264v-.264a.132.132 0 00-.23-.093zm.913-.913a.132.132 0 00.096.226h.265v.265c-.003.18.268.18.264 0v-.397a.132.132 0 00-.132-.132h-.397a.135.135 0 00-.096.038zm-.441.47a.399.399 0 000 .56.399.399 0 00.561 0 .399.399 0 000-.56.399.399 0 00-.561 0zm.187.187a.13.13 0 01.187 0 .13.13 0 010 .187.13.13 0 01-.187 0 .13.13 0 010-.187zm.653.258a.13.13 0 00-.037.093v.265h-.264a.132.132 0 100 .265h.396c.074 0 .133-.06.133-.133v-.397a.132.132 0 00-.228-.093zm-.56 1.145c-.128.124.063.315.188.187l.187-.187c.128-.125-.063-.316-.187-.187zm1.122-1.121c-.129.124.062.315.187.187l.187-.187c.128-.125-.062-.316-.187-.187zm-.747 1.495c-.129.125.062.315.187.187l.187-.187c.128-.125-.062-.315-.187-.187zm.561-.561c-.128.124.062.315.187.187l.187-.187c.129-.125-.062-.316-.187-.187zM8.311 9c-.128.125.063.316.187.188L8.686 9c.128-.124-.063-.315-.188-.187zm-.748 1.497c-.128.125.062.316.187.187l.187-.187c.129-.124-.062-.315-.187-.187zm.561-.561c-.128.125.063.315.187.187l.187-.187c.129-.125-.062-.315-.187-.187zm.562-.561c-.129.124.062.315.187.187l.187-.187c.128-.125-.063-.316-.187-.187z" color="#000" font-weight="400" font-family="sans-serif" overflow="visible" fill="unset"/></svg>
