<svg xmlns="http://www.w3.org/2000/svg" width="284.256" height="297.945" viewBox="0 0 75.209 78.831"><path d="M72.103 39.674a33.734 33.734 0 01-33.734 33.734A33.734 33.734 0 014.635 39.674 33.734 33.734 0 0138.369 5.94a33.734 33.734 0 0133.734 33.734z" fill="none" stroke="var(--text)" stroke-width="2" stroke-linecap="round" stroke-linejoin="round" stroke-miterlimit="7"/><path d="M27.084 4.124c-.181-.287-.499-.558-.825-.656L15.629.272c-.678-.144-1.63.185-1.86.937-.228.74.298 1.618 1.052 1.794l7.47 2.241L1.253 17.391a1.426 1.426 0 001.427 2.47L23.718 7.715l-1.794 7.59c-.178.666.274 1.628 1.027 1.81.754.18 1.555-.48 1.742-1.144L27.24 5.167c.087-.37.035-.714-.156-1.042zm46.537 17.48c.21-.267.36-.657.345-.996l-.515-11.089c-.09-.687-.716-1.475-1.502-1.444-.775.031-1.428.82-1.343 1.59l.367 7.79-18.444-15.81a1.426 1.426 0 00-1.857 2.165l18.444 15.811-7.755.828c-.687.054-1.445.8-1.365 1.57.08.77.968 1.308 1.657 1.264l11.036-1.186c.378-.04.685-.205.932-.493zM.471 59.73c-.175.291-.273.697-.214 1.032l1.936 10.93c.178.67.9 1.371 1.676 1.239.763-.13 1.31-.996 1.127-1.749L3.63 63.503l20.324 13.308a1.427 1.427 0 001.563-2.387L5.193 61.116l7.584-1.818c.675-.141 1.33-.978 1.152-1.732-.178-.755-1.128-1.173-1.805-1.04L1.331 59.121c-.37.089-.653.29-.86.609zm50.43 16.775c-.202-.274-.338-.668-.31-1.007l.889-11.065c.113-.683.765-1.45 1.55-1.392.772.057 1.398.867 1.288 1.633l-.63 7.774L72.656 57.27a1.426 1.426 0 011.782 2.228L55.47 74.676l7.723 1.09c.685.076 1.417.847 1.311 1.615-.105.767-1.011 1.274-1.698 1.207l-10.99-1.559a1.372 1.372 0 01-.915-.524z" style="text-indent:0;text-transform:none" overflow="visible" stroke-width=".475" fill="unset" stroke="unset" color="unset"/><path d="M54.953 21.878a10.135 10.135 0 00-9.516-2.719c-.169.04-.337.079-.503.126a10.233 10.233 0 00-.833.28c-.141.054-.281.107-.42.167-.16.07-.318.147-.474.225a9.89 9.89 0 00-1.014.574c-.095.062-.187.127-.28.192a10.72 10.72 0 00-.486.361c-.078.062-.156.122-.232.186-.23.193-.456.393-.67.608a10.252 10.252 0 00-.769.868c-.186.234-.364.472-.528.718l-.01.016a10.214 10.214 0 00-.532.91 10.136 10.136 0 00-1.048 6.108h-.005c.005.032.013.064.018.095.021.145.046.288.074.432l.01.048.02.1c.015.068.027.135.043.202.04.178.088.354.14.53l.04.146c.008.023.013.046.02.069.008.025.013.05.021.074l.005-.002c.065.204.137.405.215.605.067.171.144.339.22.507.04.089.077.18.12.266l-.088-.016c-.001.001-.003.003-.005.003a2.136 2.136 0 01-1.243-.862 2.141 2.141 0 01-.26-1.875c-.293-1.845-.1-3.726.528-5.456a7.332 7.332 0 00-4.464 1.267 7.366 7.366 0 00-3.15 7.067l-.766.522-.345 1.826-1.095-.207-.458 2.42-1.937-.365-.259 1.368-1.958-.37-.629 3.326-2.884-.546-.172.905-1.136-.215-.51 2.695-2.61-.494-.478 2.527h.066l1.58.3 11.611-7.918.783 1.15-10.461 7.132 1.643.311 13.369-9.116a7.373 7.373 0 009.26-1.107c.467.28.952.528 1.456.728l.004.002a10.4 10.4 0 001.176.38c-.578.61-1.486.85-2.323.534-.064-.024-.12-.06-.18-.09-.165.135-.33.27-.508.394l-.002.002-.076.052a8.595 8.595 0 01-6.436 1.351 7.403 7.403 0 001.764 3.326l-.329.872.765 1.693-1.015.458 1.015 2.245-1.796.813.573 1.268-1.815.821 1.394 3.085-2.675 1.21.38.839-1.054.476 1.13 2.5-2.422 1.094 1.06 2.343.054-.037 1.466-.663 4.961-13.148 1.301.491-4.47 11.848 1.524-.69 5.713-15.138a7.374 7.374 0 006.56-4.762 7.312 7.312 0 00.447-3.143 10.125 10.125 0 004.8-2.69c3.978-3.979 3.978-10.45 0-14.429zm-5.035 15.745a7.362 7.362 0 00-4.102-4.81 8.705 8.705 0 01-.145 1.512 8.61 8.61 0 01-.512 1.698c.406.44.617 1.035.565 1.64a8.661 8.661 0 01-2.058-.757c-.096-.05-.186-.111-.28-.164a7.376 7.376 0 00-.092-8.173 7.331 7.331 0 00-3.055-2.557 8.206 8.206 0 00-.606 3.419c.457.136.875.415 1.165.84.466.683.475 1.534.114 2.216a2.047 2.047 0 01-.123.212c-.011.016-.026.03-.037.046-.063.087-.13.17-.208.249-.046.045-.094.084-.142.124a2.34 2.34 0 01-.092.077 2.11 2.11 0 01-.195.129l-.072.04c-.055-.1-.112-.198-.163-.299-.056-.11-.105-.223-.156-.336-.065-.143-.13-.285-.187-.432a8.59 8.59 0 01-.227-.65c-.02-.066-.035-.132-.053-.198a8.84 8.84 0 01-.149-.612l-.03-.163a8.845 8.845 0 011.302-6.43l.01-.014c.14-.212.294-.418.454-.62l.123-.15a8.96 8.96 0 01.541-.6 9.06 9.06 0 01.579-.524c.066-.056.133-.108.2-.16.137-.11.277-.213.42-.312.08-.056.16-.113.242-.167a8.691 8.691 0 01.878-.496c.134-.067.27-.133.407-.193.12-.052.242-.099.365-.145a9.168 9.168 0 01.719-.242c.14-.04.282-.073.424-.106.095-.022.188-.048.283-.067v-.002a8.91 8.91 0 011.714-.166c2.353 0 4.566.917 6.23 2.58 3.436 3.436 3.436 9.026 0 12.462a8.74 8.74 0 01-4.05 2.3z" fill="unset"/></svg>
