<svg xmlns="http://www.w3.org/2000/svg" width="256" height="256" viewBox="0 0 256 256"><path d="M1.457 128.006l19.596-33.94L80.407 128l-59.289 34.026zM254.568 128.086l-19.596 33.94-59.354-33.934 59.289-34.026zM25.187 86.892l15.817-27.396L230.81 169.084l-15.818 27.396zM25.192 169.082l63.145-36.457 31.785 18.35-79.113 45.503zM230.814 86.891l-63.145 36.457-31.785-18.35 79.113-45.503zM112.181 237.583v-72.812l15.864-9.159 15.78 9.111-.01 72.86zM112.181 18.408V91.22l15.864 9.159 15.78-9.111-.01-72.86zM45.085 203.536l58.98-34.052-.032 68.099-39.306.009zM210.915 203.536l-58.98-34.052.032 68.099 39.306.009zM45.085 52.455l58.98 34.052-.032-68.099-39.306-.009zM210.915 52.455l-58.98 34.052.032-68.099 39.306-.009z" stroke="#000"/></svg>
