<svg xmlns="http://www.w3.org/2000/svg" width="64" height="64" viewBox="0 0 16.933 16.933"><path d="M16.274 8.466a7.807 7.807 0 01-7.807 7.807A7.807 7.807 0 01.66 8.466 7.807 7.807 0 018.467.659a7.807 7.807 0 017.807 7.807z" fill="none" stroke="var(--text)" stroke-width="1.058"/><path d="M5.947 4.873c-.204 1.997-.113 4.659-.034 7.04.014.399.397.998 1.242.454 1.43-.92 3.422-2.33 4.694-3.34.375-.298.328-.81-.223-1.248-1.214-.964-2.954-2.295-4.543-3.274-.385-.237-1.05-.487-1.136.367z" fill="none" stroke="var(--text)" stroke-width="1.058"/></svg>
