<svg xmlns="http://www.w3.org/2000/svg" width="64" height="64" viewBox="0 0 16.933 16.933"><path d="M1.802.935a.865.865 0 00-.867.867v13.33c0 .48.386.867.867.867h13.33c.48 0 .867-.387.867-.867V1.802a.865.865 0 00-.867-.867zm8.946.744c.266.04 1.01 1.564 1.233 1.654.231.094 1.922-.523 2.054-.311.132.211-1.167 1.457-1.185 1.706-.017.249 1.093 1.666.932 1.857-.16.191-1.748-.659-1.99-.599-.242.06-1.247 1.554-1.478 1.46-.231-.094.087-1.866-.045-2.077-.132-.212-1.863-.707-1.845-.955.018-.249 1.801-.494 1.962-.685.16-.19.096-1.99.338-2.05a.06.06 0 01.024 0zM4.66 7.636c1.532-.044 5.65 1.746 5.698 2.28.16 1.805-4.4 4.818-4.853 4.759-.443-.058-1.52-2.195-1.643-3.498-.1-1.019.059-2.868.209-3.226.064-.154.306-.307.59-.315z"/></svg>