<svg xmlns="http://www.w3.org/2000/svg" width="24" height="24" fill="none" stroke="currentColor" stroke-width="2" stroke-linecap="round" stroke-linejoin="round"><path d="M12.345 18.922c-.962 0-1.795-.21-2.5-.628a4.242 4.242 0 01-1.62-1.707 9 9 0 01-.826-2.284 12.287 12.287 0 01-.262-2.602c0-.692.045-1.354.137-1.985a9.16 9.16 0 01.501-1.925 6.14 6.14 0 01.94-1.695 4.264 4.264 0 011.507-1.168c.621-.3 1.328-.449 2.123-.449.961 0 1.794.21 2.5.628a4.24 4.24 0 011.62 1.707 8.97 8.97 0 01.825 2.284c.175.804.262 1.672.262 2.603a13.914 13.914 0 01-.136 1.984 8.857 8.857 0 01-.512 1.925 6.5 6.5 0 01-.942 1.696c-.375.479-.875.868-1.494 1.167-.621.3-1.329.449-2.123.449zm1.838-5.31a2.66 2.66 0 00.765-1.911c0-.744-.249-1.382-.746-1.912-.499-.53-1.117-.796-1.857-.796-.741 0-1.36.265-1.859.796a2.696 2.696 0 00-.744 1.912c0 .744.249 1.381.746 1.91.498.532 1.117.797 1.857.797.741 0 1.353-.265 1.838-.796zm-1.838 8.92c5.751 0 10.415-4.85 10.415-10.831C22.76 5.718 18.096.869 12.345.869 6.593.869 1.93 5.719 1.93 11.701c0 5.982 4.663 10.831 10.415 10.831z" stroke="none" fill="currentColor" stroke-width="0"/></svg>